<?xml version="1.0" encoding="utf-8"?>
<!-- Generator: Adobe Illustrator 25.1.0, SVG Export Plug-In . SVG Version: 6.00 Build 0)  -->
<svg version="1.1" id="Livello_1" xmlns="http://www.w3.org/2000/svg" xmlns:xlink="http://www.w3.org/1999/xlink" x="0px" y="0px"
	 viewBox="0 0 500 500" style="enable-background:new 0 0 500 500;" xml:space="preserve">
<style type="text/css">
	.st0{fill:#103859;}
	.st1{fill:#FFDB27;}
</style>
<g>
	<path class="st0" d="M399.2,355c-21.9,0-39.7-17.8-39.7-39.7c0-21.9,17.8-39.7,39.7-39.7s39.7,17.8,39.7,39.7
		C438.9,337.1,421.1,355,399.2,355z M399.2,294.4c-11.5,0-20.9,9.4-20.9,20.8c0,11.5,9.4,20.9,20.9,20.9s20.9-9.4,20.9-20.9
		C420,303.8,410.7,294.4,399.2,294.4z"/>
	<circle class="st0" cx="399.2" cy="316.1" r="11"/>
	<path class="st0" d="M78.1,355c-21.9,0-39.7-17.8-39.7-39.7c0-21.9,17.8-39.7,39.7-39.7s39.7,17.8,39.7,39.7
		C117.8,337.1,100,355,78.1,355z M78.1,294.4c-11.5,0-20.9,9.4-20.9,20.8c0,11.5,9.4,20.9,20.9,20.9s20.9-9.4,20.9-20.9
		C98.9,303.8,89.6,294.4,78.1,294.4z"/>
	<circle class="st0" cx="78.1" cy="316.1" r="11"/>
	<path class="st0" d="M497.4,269.8l-2.6-19l-6.7-5.6C465.6,217.4,385,211.7,385,211.7s-57.5-38.5-91.9-54.7
		c-34.4-16.2-111.4-12.1-148.4-10c-26.9,1.5-56.3,5.7-70.2,7.9c-3.5,0.5-4.9,4.8-2.4,7.3l4.9,4.9c-4.6,2.1-35.9,35.4-35.9,35.4
		c-17.5,9.8-24.1,19-22.1,21c2.1,2.1,10.3,1,10.3,1l-21,37c-3.6,0-8.2,3.6-8.2,3.6v36.2c0,6.2,3.2,12,8.5,15.3l6.4,3.9l19.5,1.5
		l0.4,0c-0.5-2.6-0.7-5.2-0.7-7.9c0-24.5,19.9-44.4,44.4-44.4c24.5,0,44.4,19.9,44.4,44.4c0,2-0.1,3.9-0.4,5.8l1.2,0l0.4,10.5
		c0.1,1.3,1.1,2.4,2.5,2.4h29l161.7-2.6l29.1,2.3c2.1,0.2,4-1.4,4.4-3.5l1.5-10.1l3-0.7c-0.1-1.4-0.2-2.7-0.2-4.1
		c0-25.5,21.5-46,47.4-44.3c21.7,1.4,39.4,18.8,41.2,40.5c0.5,6.1-0.2,11.9-1.9,17.2l0.3,0l52.9-3.6c4.1-0.5,5.1-7.2,5.1-7.2v-40.6
		L497.4,269.8z M170.4,208.2l-73.8-2c0,0,21.6-38.9,48.9-41.6l29.6-4L170.4,208.2z M305.4,212.2l-117.1-4l1.7-47.6c0,0,9.6-1,46.6,0
		c36.9,1,68.8,21.6,68.8,21.6s32.3,24.7,34.8,29.9H305.4z"/>
	<path class="st1" d="M215.9,239h-20.2c-0.9,0-1.6-0.7-1.6-1.6v-3.6c0-0.9,0.7-1.6,1.6-1.6h20.2c0.9,0,1.6,0.7,1.6,1.6v3.6
		C217.4,238.3,216.8,239,215.9,239z"/>
</g>
</svg>
