<?xml version="1.0" encoding="utf-8"?>
<!-- Generator: Adobe Illustrator 25.1.0, SVG Export Plug-In . SVG Version: 6.00 Build 0)  -->
<svg version="1.1" id="Livello_1" xmlns="http://www.w3.org/2000/svg" xmlns:xlink="http://www.w3.org/1999/xlink" x="0px" y="0px"
	 viewBox="0 0 500 500" style="enable-background:new 0 0 500 500;" xml:space="preserve">
<style type="text/css">
	.st0{fill:#103859;}
	.st1{opacity:0.89;fill:#FFDB27;}
</style>
<g>
	<path class="st0" d="M497.3,235.2c-31.4-35.8-152.8-33.6-152.8-33.6s-59.8-37.2-68.5-37.2s-11.9,4.5-11.9,4.5s73.9,38.4,63.4,38.4
		c-10.5,0-213.9-16.2-213.9-16.2s-20.1,0.4-30.6,2.2c-10.5,1.7-66.8,3.1-66.8,3.1l-5.2,6.1l1.7,7.9l-3.9,24L0.9,247
		c-4,12.7,7,31,7,31l52,9.6c0,0,1,0,2.8,0.1c-1.2-4-1.9-8.2-1.9-12.6c0-23.1,18.7-41.8,41.8-41.8c23.1,0,41.8,18.7,41.8,41.8
		c0,5-0.9,9.9-2.5,14.4c71.2,1.6,173.9,4,244.8,5.6c-3.2-5.9-5.1-12.7-5.1-19.9c0-23.1,18.7-41.8,41.8-41.8s41.8,18.7,41.8,41.8
		c0,7.9-2.2,15.2-6,21.5c3.2,0.1,5.6,0.1,6.9,0.1C490.7,297.2,500,278,500,278L497.3,235.2z"/>
	<path class="st0" d="M102.6,311.3c-19.5,0-35.4-15.9-35.4-35.4s15.9-35.4,35.4-35.4s35.4,15.9,35.4,35.4S122.1,311.3,102.6,311.3z
		 M102.6,257.4c-10.2,0-18.6,8.3-18.6,18.6c0,10.2,8.3,18.6,18.6,18.6s18.6-8.3,18.6-18.6C121.2,265.7,112.8,257.4,102.6,257.4z"/>
	<circle class="st0" cx="102.6" cy="276.7" r="9.8"/>
	<path class="st0" d="M423.5,310.9c-19.5,0-35.4-15.9-35.4-35.4s15.9-35.4,35.4-35.4s35.4,15.9,35.4,35.4S443.1,310.9,423.5,310.9z
		 M423.5,256.9c-10.2,0-18.6,8.3-18.6,18.6c0,10.2,8.3,18.6,18.6,18.6c10.2,0,18.6-8.3,18.6-18.6
		C442.1,265.3,433.8,256.9,423.5,256.9z"/>
	<circle class="st0" cx="423.5" cy="276.3" r="9.8"/>
	<path class="st1" d="M213.9,232.9l-17.2-0.4c-0.6,0-1.1-0.5-1.1-1.2l0.1-3.3c0-0.6,0.5-1.1,1.2-1.1l17.2,0.4c0.6,0,1.1,0.5,1.1,1.2
		l-0.1,3.3C215.1,232.4,214.6,232.9,213.9,232.9z"/>
	<path class="st0" d="M187.7,199.9c0,0,7.2-30.6,16.2-29.2c9.1,1.4,8.4,2.1,8.4,7.1c0,5,2.5,22.1-8.4,22.1
		C193,199.9,187.7,199.9,187.7,199.9z"/>
	<path class="st0" d="M122.5,199.9c0,0,0.5-22.5,7.1-22.8c6.6-0.3,6.2,0.3,6.9,3.8s5,15.1-2.6,16.7
		C126.3,199.2,122.5,199.9,122.5,199.9z"/>
</g>
</svg>
