<?xml version="1.0" encoding="utf-8"?>
<!-- Generator: Adobe Illustrator 26.2.1, SVG Export Plug-In . SVG Version: 6.00 Build 0)  -->
<svg version="1.1" id="Layer_1" xmlns="http://www.w3.org/2000/svg" xmlns:xlink="http://www.w3.org/1999/xlink" x="0px" y="0px"
	 viewBox="0 0 455 85" style="enable-background:new 0 0 455 85;" xml:space="preserve">
<style type="text/css">
	.st0{fill:#007AFF;}
	.st1{fill:#F2F2F2;}
</style>
<g>
	<g>
		<path class="st0" d="M77.2,40.9c0,0.2,0,0.4,0,0.6c0.1,0.6,0.1,1.3,0.1,2c0,9.8-7.9,17.8-17.8,17.8H8.3l10.3,21.9h40
			c13.9,0,25.3-11.4,25.3-25.3C83.9,51.4,81.4,45.4,77.2,40.9L77.2,40.9z"/>
		<path class="st0" d="M24.5,25.7h50.3L64.6,3.9h-39C11.7,3.9,0.3,15.2,0.3,29.2c0,6.5,2.5,12.5,6.6,17c0-0.2,0-0.4,0-0.6
			c-0.1-0.6-0.1-1.3-0.1-2C6.8,33.7,14.7,25.7,24.5,25.7L24.5,25.7z"/>
	</g>
	<path class="st0" d="M50.5,56.1c2.9,0,5.7,0.1,8.6,0c6.2-0.1,10.5-4,11.3-10.2c0-0.2,0.1-0.4,0.2-0.6v-3c-0.3-1.1-0.4-2.3-0.8-3.3
		c-1.4-4.2-4-7.2-8.5-8c-1.4-0.2-2.8,0-4.2,0c-2.5,0-5,0-7.6,0c0,0-15.2-0.2-21.8-0.2c-1.8,0-3.6,0-5.3,0.2
		c-3.4,0.4-5.8,2.6-7.1,5.6c-0.7,1.5-1.5,3.9-1.5,6.7c0,0.9-0.3,3.1,1.3,6.8c1.9,4.2,4.9,6.3,9.4,6.3C32.2,56.2,50.2,56.1,50.5,56.1
		L50.5,56.1z M62.8,54.7c1.6-2.2,3.5-4.3,5.8-5.9C67.6,51.7,65.8,53.8,62.8,54.7z M68.1,38.4c-2.4-1.5-4.2-3.6-5.8-5.9
		C65.3,33.4,67.1,35.5,68.1,38.4z M32,32.5c4.1-0.6,8.1-0.5,12.1,0.2C40,34,36,33.8,32,32.5z M49,33c0.3-0.1,0.7,0.2,1,0.5
		c2,1.9,3.2,4.3,3.7,7c0.8,4.6,0,8.8-2.9,12.5c-0.8,1.1-1.6,1.6-3,1c-1.1-0.5-2.3-0.7-3.6-1c1.6-6.4,1.5-12.6,0-18.8
		C45.8,33.6,47.4,33.3,49,33L49,33z M27.6,34.2c0.9,0.3,1.7,0.6,2.6,0.9c-0.8,5.7-0.9,11.4,0,17.1c-0.8,0.3-1.6,0.5-2.3,0.8
		C24.5,48.7,24.3,39.9,27.6,34.2L27.6,34.2z M31.8,54.8c2.9-1.4,9.2-1.5,12.5-0.2C40.1,55.2,36,55.2,31.8,54.8z"/>
</g>
<path class="st1" d="M110.9,49.1c0,0.2,0,0.5,0.1,0.9c0,0.4,0.3,1,0.7,1.9s1,1.7,1.7,2.3c0.7,0.7,1.9,1.3,3.5,1.9
	c1.6,0.6,3.5,0.9,5.7,0.9c3.6,0,6.3-0.6,8-1.7s2.6-2.6,2.6-4.3c0-1.5-0.6-2.7-1.7-3.7c-1.1-1-2.6-1.8-4.5-2.5
	c-1.9-0.6-3.9-1.2-6.1-1.8c-2.2-0.5-4.5-1.1-6.7-1.8c-2.2-0.7-4.3-1.5-6.2-2.4s-3.4-2.2-4.6-3.9c-1.2-1.7-1.8-3.6-1.8-5.9v-0.2
	c0-4.6,1.8-8.2,5.5-10.9s8.6-3.9,14.9-3.9c3.7,0,7,0.5,9.8,1.4s4.8,2.1,6.1,3.5s2.3,2.8,3.1,4.2c0.8,1.4,1.2,2.6,1.3,3.5l0.2,1.4
	h-10.8c0-0.2,0-0.4-0.1-0.6c-0.1-0.2-0.3-0.7-0.7-1.3s-0.9-1.2-1.5-1.7c-0.6-0.5-1.6-0.9-2.8-1.3c-1.3-0.4-2.7-0.6-4.4-0.6
	c-3.2,0-5.6,0.5-7.4,1.6c-1.7,1.1-2.6,2.4-2.6,4v0.3c0.1,1.2,0.8,2.2,2,3c1.2,0.8,2.7,1.5,4.6,2c1.9,0.5,4,1,6.2,1.4
	s4.5,1.1,6.7,1.8c2.2,0.7,4.3,1.6,6.1,2.7c1.8,1.1,3.3,2.6,4.5,4.5s1.7,4.2,1.7,6.9c0,4.7-1.9,8.3-5.6,10.9s-9,3.9-15.7,3.9
	c-2.9,0-5.5-0.3-7.8-0.9s-4.3-1.4-5.8-2.3c-1.5-1-2.8-2-4-3.2c-1.1-1.2-2-2.4-2.6-3.5c-0.6-1.2-1-2.3-1.4-3.2
	c-0.4-1-0.6-1.8-0.6-2.4l-0.2-0.9L110.9,49.1L110.9,49.1z"/>
<path class="st1" d="M147.8,29.7h9.8v4.6c2.3-3.3,5.6-5,9.8-5.2c0.6,0,1.1-0.1,1.7-0.1c5.3,0,9.6,1.7,13,5.1
	c3.4,3.4,5.1,7.8,5.1,13.2s-1.7,10-5,13.3s-7.6,4.9-12.7,4.9c-0.7,0-1.5,0-2.2-0.1c-4.1-0.3-7.2-2-9.4-5.1v13.5l-10,5.2L147.8,29.7
	L147.8,29.7z M157.6,47.2c0,3.3,0.9,5.9,2.6,7.6c1.8,1.8,4.1,2.6,7,2.6s5.1-0.9,7-2.6s2.8-4.3,2.8-7.6s-0.9-5.9-2.7-7.7
	c-1.8-1.8-4.2-2.7-7-2.7s-5.3,0.8-7,2.5C158.5,41,157.6,43.6,157.6,47.2L157.6,47.2z"/>
<path class="st1" d="M196,33.8c3.2-3.2,7.5-4.8,12.8-4.8c0.6,0,1.1,0,1.7,0.1c4.6,0.2,8,2.1,10.2,5.8v-5.1h9.7v35.1h-10v-4.8
	c-2.2,3.4-5.4,5.2-9.7,5.5c-0.7,0-1.5,0.1-2.2,0.1c-5.1,0-9.4-1.6-12.7-4.9c-3.4-3.2-5-7.7-5-13.3S192.4,37.3,196,33.8L196,33.8z
	 M200.9,47.3c0,3.3,0.9,5.8,2.8,7.6c1.8,1.8,4.2,2.6,7,2.6s5.2-0.9,7-2.6s2.7-4.3,2.7-7.6c0-3.6-0.9-6.2-2.6-7.8s-4.1-2.5-7-2.5
	s-5.2,0.9-7,2.7C201.8,41.4,200.9,44,200.9,47.3L200.9,47.3z"/>
<path class="st1" d="M239,33.8c3.4-3.3,8.1-4.9,14.1-4.9c3.2,0,6,0.4,8.4,1.3c2.4,0.9,4.2,1.9,5.3,3.1c1.1,1.2,2.1,2.5,2.8,3.7
	s1.1,2.3,1.2,3.1l0.2,1.3h-10.2c0-0.1-0.1-0.3-0.2-0.5c0-0.2-0.3-0.6-0.7-1.1c-0.4-0.5-0.8-1-1.3-1.4c-0.5-0.4-1.2-0.8-2.3-1.1
	s-2.1-0.5-3.4-0.5c-3,0-5.2,0.9-6.7,2.6c-1.5,1.8-2.3,4.3-2.3,7.5s0.8,5.9,2.3,7.8c1.6,2,3.8,2.9,6.7,2.9c2,0,3.6-0.5,4.9-1.5
	c1.3-1,2.1-2,2.4-3.1l0.5-1.5h10.1c0,0.4-0.1,0.9-0.2,1.5c-0.1,0.6-0.5,1.7-1.3,3.4c-0.8,1.6-1.7,3-2.8,4.2
	c-1.1,1.2-2.9,2.3-5.3,3.4s-5.1,1.5-8.3,1.5c-6.1,0-10.8-1.7-14.2-5c-3.4-3.3-5.1-7.9-5.1-13.6C233.9,41.5,235.6,37.1,239,33.8
	L239,33.8z"/>
<path class="st1" d="M278.2,34c3.3-3.4,7.9-5.1,13.7-5.1s10.2,1.7,13.4,5s4.8,7.8,4.8,13.4c0,0.9,0,1.9-0.2,2.9H283
	c0.2,2.3,1.2,4.1,2.8,5.5c1.7,1.4,3.8,2,6.2,2c1.1,0,2.2-0.1,3.1-0.4c0.9-0.3,1.6-0.6,2.1-0.9s0.9-0.7,1.2-1s0.6-0.7,0.7-0.9
	l0.2-0.4h10c0,0.3-0.2,0.7-0.3,1.2s-0.7,1.4-1.5,2.8s-1.8,2.5-2.9,3.5c-1.1,1-2.8,1.9-5.1,2.8s-4.8,1.2-7.6,1.2
	c-5.6,0-10.1-1.6-13.6-5c-3.5-3.3-5.2-7.7-5.2-13.3S274.9,37.4,278.2,34L278.2,34z M300.4,43.5v-0.2c0-2-0.8-3.5-2.3-4.7
	s-3.6-1.8-6-1.8s-4.5,0.6-6.1,1.9c-1.6,1.2-2.5,2.9-2.8,4.8L300.4,43.5L300.4,43.5z"/>
<path class="st1" d="M334.9,39.7c0-7.8,2.3-14.1,6.9-18.8c4.6-4.7,11-7,19.1-7c3,0,5.8,0.3,8.3,0.9c2.5,0.6,4.6,1.4,6.2,2.5
	c1.6,1,3,2.1,4.2,3.3c1.2,1.2,2.2,2.4,2.8,3.6c0.6,1.2,1.1,2.3,1.5,3.4s0.6,1.8,0.7,2.5l0.2,0.9H374c0-0.2-0.1-0.5-0.2-0.9
	c-0.1-0.4-0.5-1.1-1-2c-0.6-1-1.3-1.8-2.2-2.6s-2.1-1.4-3.8-2s-3.6-0.9-5.7-0.9c-4.8,0-8.5,1.6-11.2,4.7c-2.7,3.1-4,7.3-4,12.5
	s1.3,9.3,4,12.4c2.7,3.1,6.4,4.7,11.1,4.7c2.1,0,3.9-0.3,5.6-0.9c1.6-0.6,2.9-1.3,3.7-2.1c0.9-0.8,1.6-1.7,2.1-2.5s0.9-1.5,1.1-2.1
	l0.2-0.9h10.8c0,0.3,0,0.6-0.1,1s-0.3,1.2-0.7,2.4s-0.9,2.3-1.4,3.4s-1.5,2.3-2.7,3.6c-1.2,1.3-2.6,2.5-4.2,3.4
	c-1.6,0.9-3.6,1.7-6.1,2.4c-2.5,0.6-5.2,1-8.3,1c-8.4,0-14.9-2.3-19.3-6.9C337.1,54,334.9,47.7,334.9,39.7L334.9,39.7z"/>
<path class="st1" d="M392.6,33.8c3.2-3.2,7.5-4.8,12.8-4.8c0.6,0,1.1,0,1.7,0.1c4.6,0.2,8,2.1,10.2,5.8v-5.1h9.7v35.1h-10v-4.8
	c-2.2,3.4-5.4,5.2-9.7,5.5c-0.7,0-1.5,0.1-2.2,0.1c-5.1,0-9.4-1.6-12.7-4.9c-3.3-3.2-5-7.7-5-13.3S389.1,37.3,392.6,33.8L392.6,33.8
	z M397.5,47.3c0,3.3,0.9,5.8,2.8,7.6s4.2,2.6,7,2.6s5.2-0.9,7-2.6s2.7-4.3,2.7-7.6c0-3.6-0.9-6.2-2.6-7.8c-1.7-1.6-4.1-2.5-7-2.5
	s-5.2,0.9-7,2.7C398.5,41.4,397.5,44,397.5,47.3L397.5,47.3z"/>
<path class="st1" d="M430.7,29.7h9.8v5.2c2.1-3.5,5.2-5.2,9.4-5.2h4.1v8.4h-3.9c-4.1,0-6.7,1-7.8,3c-1.1,2-1.6,6.3-1.6,13v10.7h-10
	V29.7z"/>
<rect x="316.1" y="43.2" class="st1" width="14.8" height="6.9"/>
</svg>
