<?xml version="1.0" encoding="utf-8"?>
<!-- Generator: Adobe Illustrator 26.2.1, SVG Export Plug-In . SVG Version: 6.00 Build 0)  -->
<svg version="1.1" id="Layer_2_00000025427293343448197510000010814960177034299807_"
	 xmlns="http://www.w3.org/2000/svg" xmlns:xlink="http://www.w3.org/1999/xlink" x="0px" y="0px" viewBox="0 0 809.5 142.6"
	 style="enable-background:new 0 0 809.5 142.6;" xml:space="preserve">
<style type="text/css">
	.st0{fill:#007AFF;}
	.st1{fill:#00264D;}
</style>
<g id="Layer_1-2">
	<g>
		<g>
			<g>
				<path class="st0" d="M136.4,65.6c0.1,0.4,0.1,0.7,0.1,1.1c0.2,1.1,0.2,2.3,0.2,3.6c0,17.4-14.1,31.6-31.5,31.6H14.1l18.2,38.8
					h71c24.7,0,44.9-20.2,44.9-44.8C148.2,84.3,143.7,73.7,136.4,65.6L136.4,65.6z"/>
				<path class="st0" d="M42.9,38.8h89.3L114,0H44.8C20.2,0,0,20.2,0,44.8C0,56.3,4.4,66.9,11.7,75c-0.1-0.4-0.1-0.7-0.1-1.1
					c-0.2-1.1-0.2-2.3-0.2-3.6C11.4,53,25.5,38.8,42.9,38.8L42.9,38.8z"/>
			</g>
			<path class="st0" d="M89.1,92.6c5.1,0,10.2,0.1,15.3,0c11-0.2,18.6-7.1,20-18c0-0.3,0.2-0.7,0.3-1v-5.3c-0.5-2-0.8-4-1.4-5.9
				c-2.5-7.4-7.1-12.8-15.1-14.2c-2.4-0.4-5-0.1-7.5-0.1c-4.4,0-8.8,0-13.4,0c0,0-27-0.3-38.7-0.4c-3.2,0-6.3,0.1-9.5,0.5
				c-6,0.7-10.2,4.6-12.7,9.9c-1.3,2.7-2.6,6.9-2.8,11.8c0,1.5-0.5,5.6,2.3,12c3.3,7.5,8.7,11.1,16.6,11.1
				C56.6,92.9,88.4,92.6,89.1,92.6L89.1,92.6z M110.7,90.1c2.9-4,6.1-7.7,10.3-10.4C119.2,84.8,116.1,88.5,110.7,90.1z M120.2,61.2
				c-4.2-2.7-7.4-6.4-10.3-10.5C115.2,52.3,118.4,56.1,120.2,61.2z M56.1,50.7c7.2-1,14.4-1,21.5,0.4C70.4,53.4,63.2,53,56.1,50.7z
				 M86.2,51.6c0.5-0.1,1.3,0.4,1.8,0.8c3.6,3.3,5.7,7.5,6.5,12.3c1.4,8.1-0.1,15.5-5.1,22.2c-1.4,1.9-2.9,2.9-5.4,1.8
				c-2-0.8-4.1-1.2-6.4-1.8c2.8-11.3,2.6-22.3,0-33.4C80.7,52.8,83.4,52.1,86.2,51.6z M48.3,53.7c1.5,0.5,3,1,4.6,1.6
				c-1.4,10.1-1.6,20.2,0,30.4c-1.5,0.5-2.8,0.9-4.2,1.4C42.8,79.5,42.5,64,48.3,53.7z M55.8,90.2c5.2-2.5,16.3-2.7,22.3-0.4
				C70.5,91,63.3,91.1,55.8,90.2z"/>
		</g>
		<path class="st1" d="M196.1,80.2c0,0.4,0,0.9,0.1,1.5c0.1,0.7,0.5,1.8,1.2,3.3c0.7,1.6,1.7,2.9,3,4.2c1.3,1.2,3.4,2.3,6.2,3.3
			s6.2,1.5,10.1,1.5c6.4,0,11.1-1,14.2-3c3.1-2,4.7-4.5,4.7-7.7c0-2.6-1-4.8-3-6.6c-2-1.8-4.7-3.2-8-4.3c-3.3-1.1-7-2.1-10.9-3.1
			c-4-1-7.9-2.1-11.9-3.2s-7.6-2.6-10.9-4.3s-6-4-8.1-7c-2.1-3-3.2-6.5-3.2-10.4V44c0-8.2,3.2-14.6,9.7-19.3c6.5-4.6,15.3-7,26.5-7
			c6.6,0,12.4,0.9,17.4,2.6c4.9,1.7,8.5,3.8,10.9,6.3s4.1,5,5.5,7.4c1.3,2.4,2.1,4.5,2.3,6.3l0.3,2.5h-19.1c0-0.3-0.1-0.6-0.2-1
			c-0.1-0.4-0.6-1.2-1.2-2.3s-1.6-2.1-2.7-3c-1.1-0.9-2.8-1.7-5-2.3c-2.3-0.7-4.9-1-7.8-1c-5.6,0-10,1-13.1,2.9s-4.6,4.3-4.6,7.2
			v0.5c0.2,2.1,1.3,3.9,3.5,5.4c2.1,1.5,4.9,2.7,8.2,3.5c3.4,0.9,7,1.7,11,2.6c4,0.8,7.9,1.9,11.9,3.2c4,1.3,7.6,2.9,10.9,4.8
			s5.9,4.5,7.9,7.9c2,3.4,3,7.5,3,12.2c0,8.3-3.3,14.7-9.9,19.3c-6.6,4.6-15.9,6.8-27.9,6.8c-5.1,0-9.7-0.5-13.9-1.6
			s-7.6-2.4-10.3-4.2c-2.7-1.7-5-3.6-7.1-5.7c-2-2.1-3.6-4.2-4.6-6.3c-1-2.1-1.8-4-2.5-5.7c-0.6-1.7-1-3.1-1.1-4.2l-0.3-1.5
			L196.1,80.2L196.1,80.2z"/>
		<path class="st1" d="M261.6,45.8H279v8.1c4-5.8,9.9-8.9,17.4-9.3c1-0.1,2-0.1,3-0.1c9.4,0,17.1,3,23.1,9s9,13.8,9,23.5
			s-3,17.8-8.9,23.6c-5.9,5.8-13.5,8.6-22.6,8.6c-1.3,0-2.6-0.1-3.9-0.1c-7.3-0.6-12.9-3.6-16.7-9v24l-17.8,9.2L261.6,45.8
			L261.6,45.8z M279,76.9c0,5.9,1.6,10.4,4.7,13.6c3.1,3.1,7.3,4.7,12.4,4.7s9.1-1.6,12.4-4.7s4.9-7.6,4.9-13.4s-1.6-10.4-4.8-13.6
			c-3.2-3.2-7.4-4.8-12.4-4.8s-9.4,1.5-12.5,4.3S279,70.5,279,76.9z"/>
		<path class="st1" d="M347,53.1c5.7-5.7,13.3-8.6,22.7-8.6c1,0,2,0,3,0.1c8.1,0.4,14.1,3.8,18.1,10.2v-9.1h17.1V108h-17.8v-8.6
			c-3.9,6-9.6,9.2-17.1,9.7c-1.3,0.1-2.6,0.1-3.9,0.1c-9.1,0-16.6-2.9-22.6-8.6c-5.9-5.8-8.9-13.6-8.9-23.6S340.7,59.4,347,53.1
			L347,53.1z M355.7,77c0,5.8,1.6,10.3,4.9,13.4c3.3,3.1,7.4,4.7,12.4,4.7s9.3-1.6,12.4-4.7s4.7-7.7,4.7-13.6c0-6.4-1.5-11-4.6-13.9
			s-7.2-4.3-12.5-4.3s-9.2,1.6-12.4,4.8C357.3,66.6,355.7,71.1,355.7,77z"/>
		<path class="st1" d="M423.4,53.1c6-5.8,14.3-8.7,25-8.7c5.6,0,10.6,0.8,14.9,2.3c4.3,1.5,7.4,3.4,9.5,5.5c2,2.2,3.7,4.3,5,6.6
			c1.3,2.2,2,4.1,2.2,5.5l0.4,2.3h-18.1c-0.1-0.2-0.2-0.5-0.3-0.9c-0.1-0.4-0.5-1.1-1.2-2s-1.5-1.8-2.4-2.5s-2.2-1.4-4-2
			c-1.8-0.6-3.8-0.9-6-0.9c-5.2,0-9.2,1.6-12,4.7c-2.7,3.1-4.1,7.6-4.1,13.3s1.4,10.4,4.1,13.9c2.8,3.5,6.7,5.2,11.9,5.2
			c3.5,0,6.4-0.9,8.7-2.7c2.3-1.8,3.7-3.6,4.3-5.5l0.8-2.6h18c-0.1,0.7-0.2,1.5-0.4,2.6c-0.2,1.1-1,3.1-2.3,5.9
			c-1.3,2.9-3,5.4-5,7.5c-2,2.2-5.2,4.2-9.4,5.9c-4.2,1.8-9.1,2.7-14.6,2.7c-10.8,0-19.2-2.9-25.1-8.8c-6-5.9-9-14-9-24.2
			C414.3,66.7,417.3,59,423.4,53.1L423.4,53.1z"/>
		<path class="st1" d="M492.9,53.4c5.9-6,14-9,24.3-9c10.3,0,18,3,23.7,8.9c5.7,5.9,8.5,13.8,8.5,23.7c0,1.7-0.1,3.4-0.3,5.1h-47.7
			c0.4,4.1,2,7.3,5,9.7c3,2.4,6.7,3.6,11,3.6c2,0,3.8-0.2,5.5-0.7c1.6-0.5,2.9-1,3.7-1.6c0.9-0.6,1.6-1.2,2.2-1.9
			c0.6-0.6,1-1.2,1.2-1.7l0.3-0.7h17.8c-0.1,0.6-0.3,1.3-0.6,2.2s-1.2,2.6-2.6,4.9c-1.4,2.3-3.2,4.4-5.2,6.2c-2,1.8-5,3.4-9,4.9
			s-8.4,2.2-13.4,2.2c-10,0-18-2.9-24.1-8.8c-6.1-5.8-9.2-13.7-9.2-23.6S487,59.5,492.9,53.4L492.9,53.4z M532.2,70.2v-0.4
			c0-3.5-1.4-6.3-4.2-8.4s-6.3-3.1-10.6-3.1s-8,1.1-10.9,3.3s-4.5,5.1-5,8.6L532.2,70.2L532.2,70.2z"/>
		<path class="st1" d="M593.4,63.6c0-13.9,4.1-25,12.2-33.4c8.2-8.3,19.5-12.5,33.9-12.5c5.3,0,10.2,0.5,14.7,1.7s8.1,2.6,10.9,4.4
			c2.8,1.8,5.3,3.8,7.5,5.9c2.2,2.1,3.9,4.3,5,6.4s2,4.2,2.6,5.9c0.6,1.8,1.1,3.2,1.2,4.3l0.3,1.7h-19.2c-0.1-0.4-0.2-0.9-0.4-1.6
			c-0.2-0.7-0.8-1.9-1.9-3.6s-2.3-3.2-3.9-4.6c-1.5-1.3-3.8-2.5-6.8-3.6s-6.4-1.6-10.2-1.6c-8.5,0-15.1,2.8-19.8,8.3
			c-4.8,5.5-7.1,13-7.1,22.2s2.4,16.5,7.2,22c4.8,5.6,11.4,8.4,19.8,8.4c3.7,0,7-0.5,9.9-1.5c2.9-1,5.1-2.3,6.6-3.7s2.8-2.9,3.8-4.4
			s1.7-2.7,1.9-3.7l0.4-1.5h19.1c0,0.5-0.1,1-0.2,1.7s-0.5,2.1-1.2,4.2s-1.5,4.1-2.6,6s-2.6,4-4.8,6.4c-2.2,2.3-4.7,4.3-7.5,6
			s-6.4,3.1-10.8,4.2c-4.4,1.2-9.3,1.7-14.7,1.7c-14.9,0-26.3-4.1-34.3-12.3C597.4,88.8,593.4,77.7,593.4,63.6L593.4,63.6z"/>
		<path class="st1" d="M695.8,53.1c5.7-5.7,13.3-8.6,22.7-8.6c1,0,2,0,3,0.1c8.1,0.4,14.1,3.8,18.1,10.2v-9.1h17.1V108H739v-8.6
			c-3.9,6-9.6,9.2-17.1,9.7c-1.3,0.1-2.6,0.1-3.9,0.1c-9.1,0-16.7-2.9-22.6-8.6c-5.9-5.8-8.9-13.6-8.9-23.6S689.6,59.4,695.8,53.1
			L695.8,53.1z M704.5,77c0,5.8,1.6,10.3,4.9,13.4c3.3,3.1,7.4,4.7,12.4,4.7s9.3-1.6,12.4-4.7s4.7-7.7,4.7-13.6
			c0-6.4-1.5-11-4.6-13.9s-7.2-4.3-12.5-4.3s-9.2,1.6-12.4,4.8C706.1,66.6,704.5,71.1,704.5,77L704.5,77z"/>
		<path class="st1" d="M763.4,45.8h17.4V55c3.7-6.2,9.3-9.3,16.7-9.3h7.3v14.9h-6.9c-7.3,0-11.9,1.8-13.8,5.3
			c-1.9,3.6-2.9,11.2-2.9,23V108h-17.8L763.4,45.8L763.4,45.8z"/>
		<rect x="560.1" y="69.8" class="st1" width="26.2" height="12.3"/>
	</g>
</g>
</svg>
