<?xml version="1.0" encoding="utf-8"?>
<!-- Generator: Adobe Illustrator 25.1.0, SVG Export Plug-In . SVG Version: 6.00 Build 0)  -->
<svg version="1.1" id="Livello_1" xmlns="http://www.w3.org/2000/svg" xmlns:xlink="http://www.w3.org/1999/xlink" x="0px" y="0px"
	 viewBox="0 0 500 500" style="enable-background:new 0 0 500 500;" xml:space="preserve">
<style type="text/css">
	.st0{fill:#103859;}
	.st1{opacity:0.89;fill:#FFDB27;}
</style>
<g>
	<path class="st0" d="M107.2,333.9c-19.7,0-35.8-16-35.8-35.8s16-35.8,35.8-35.8s35.8,16,35.8,35.8S126.9,333.9,107.2,333.9z
		 M107.2,279.4c-10.4,0-18.8,8.4-18.8,18.8s8.4,18.8,18.8,18.8s18.8-8.4,18.8-18.8S117.5,279.4,107.2,279.4z"/>
	<circle class="st0" cx="107.2" cy="298.9" r="9.9"/>
	<path class="st0" d="M429.1,333.9c-19.7,0-35.8-16-35.8-35.8s16-35.8,35.8-35.8s35.8,16,35.8,35.8S448.8,333.9,429.1,333.9z
		 M429.1,279.4c-10.4,0-18.8,8.4-18.8,18.8s8.4,18.8,18.8,18.8s18.8-8.4,18.8-18.8S439.5,279.4,429.1,279.4z"/>
	<circle class="st0" cx="429.1" cy="298.9" r="9.9"/>
	<path class="st0" d="M500,254.4c-24.2-31.7-151.8-35.4-151.8-35.4s-44.6-26.7-66.6-36c-22-9.3-74.7-9.8-74.7-9.8
		C116,168.7,57.6,210,57.6,210l-42.3,5.7L3.7,256.4c0,0-3.7,12.9-3.7,23.9s10.1,16.8,10.1,16.8l51.6,7.9c-0.4-2.6-0.7-5.2-0.7-7.9
		c0-25.5,20.7-46.2,46.2-46.2c25.5,0,46.2,20.7,46.2,46.2c0,3.3-0.4,6.5-1,9.6l232.6,4c-1.3-4.3-2-8.9-2-13.6
		c0-25.5,20.7-46.2,46.2-46.2c25.5,0,46.2,20.7,46.2,46.2c0,5.1-0.9,10-2.4,14.6c15.4-2,26.2-8.8,26.2-8.8l-1.1-24.5l2-2.7V254.4z
		 M104.7,218.5c-0.6-2.4-2.8-18.2,36.6-30.9l2.3,31c0,0.3-0.2,0.6-0.6,0.6l-37.9-0.4C104.9,218.8,104.7,218.6,104.7,218.5z
		 M149.3,218.6l-2.7-32.6c1-0.4,0.4-0.2,1.8-0.6c4.6-1.3,9.4-2.1,14.1-2.6c10.7-1.1,30.7-3,52.1-2.6l9.8,38.6c0.1,0.5-0.3,1-0.8,1
		l-73.8-0.7C149.6,219.2,149.3,218.9,149.3,218.6z M237.3,219.9l-13.6-39.6c0,0,0,0,0,0c35.6,2.2,48.3,6.1,48.3,6.1
		s39.1,13.6,69.5,39c1.5,1.2,0.4,3.6-1.5,3.5L238.7,221C238,220.9,237.5,220.5,237.3,219.9z"/>
	<path class="st1" d="M170.1,239.6l-17.5-0.4c-0.6,0-1.1-0.5-1.1-1.2l0.1-3.4c0-0.6,0.5-1.1,1.2-1.1l17.5,0.4c0.6,0,1.1,0.5,1.1,1.2
		l-0.1,3.4C171.3,239.2,170.7,239.7,170.1,239.6z"/>
	<path class="st1" d="M258.6,241.7l-17.5-0.4c-0.6,0-1.1-0.5-1.1-1.2l0.1-3.4c0-0.6,0.5-1.1,1.2-1.1l17.5,0.4c0.6,0,1.1,0.5,1.1,1.2
		l-0.1,3.4C259.8,241.3,259.3,241.8,258.6,241.7z"/>
</g>
</svg>
